<svg xmlns="http://www.w3.org/2000/svg" width="1920" height="1080"><path d="M262,1319L162,1317L407,1329Z" fill="#a95d76" stroke="#a95d76" stroke-width="1.51"/><path d="M1228,1331L865,1318L1325,1341Z" fill="#9698c4" stroke="#9698c4" stroke-width="1.51"/><path d="M865,1318L407,1329L1325,1341Z" fill="#a596a7" stroke="#a596a7" stroke-width="1.51"/><path d="M721,-265L1228,-255L1891,-248Z" fill="#ce8986" stroke="#ce8986" stroke-width="1.51"/><path d="M1228,-255L1507,-247L1891,-248Z" fill="#b6797d" stroke="#b6797d" stroke-width="1.51"/><path d="M1758,1282L1325,1341L1928,1331Z" fill="#5b7ab8" stroke="#5b7ab8" stroke-width="1.51"/><path d="M1956,-87L1895,67L2058,143Z" fill="#af6b7a" stroke="#af6b7a" stroke-width="1.51"/><path d="M2056,1028L2080,1102L2082,860Z" fill="#6080bc" stroke="#6080bc" stroke-width="1.51"/><path d="M1983,549L2052,554L2108,358Z" fill="#a89fad" stroke="#a89fad" stroke-width="1.51"/><path d="M2058,143L2065,273L2108,358Z" fill="#aa818c" stroke="#aa818c" stroke-width="1.51"/><path d="M1980,655L2082,860L2109,647Z" fill="#909dcd" stroke="#909dcd" stroke-width="1.51"/><path d="M2108,358L2052,554L2109,647Z" fill="#a59cae" stroke="#a59cae" stroke-width="1.51"/><path d="M2082,860L2080,1102L2109,647Z" fill="#768dc4" stroke="#768dc4" stroke-width="1.51"/><path d="M2080,1102L2081,1253L2109,647Z" fill="#607dba" stroke="#607dba" stroke-width="1.51"/><path d="M1956,-87L2058,143L2135,-50Z" fill="#a85972" stroke="#a85972" stroke-width="1.51"/><path d="M2058,143L2108,358L2135,-50Z" fill="#aa6b7e" stroke="#aa6b7e" stroke-width="1.51"/><path d="M2108,358L2109,647L2135,-50Z" fill="#a88392" stroke="#a88392" stroke-width="1.51"/><path d="M1956,-87L2135,-50L2137,-228Z" fill="#9e4365" stroke="#9e4365" stroke-width="1.51"/><path d="M1891,-248L1956,-87L2137,-228Z" fill="#994a68" stroke="#994a68" stroke-width="1.51"/><path d="M2080,1102L1946,1119L2081,1253Z" fill="#496db0" stroke="#496db0" stroke-width="1.51"/><path d="M1980,655L1883,840L2082,860Z" fill="#88a3cf" stroke="#88a3cf" stroke-width="1.51"/><path d="M1929,936L2056,1028L2082,860Z" fill="#6c8ec3" stroke="#6c8ec3" stroke-width="1.51"/><path d="M1900,342L1983,549L2108,358Z" fill="#aba1a6" stroke="#aba1a6" stroke-width="1.51"/><path d="M2052,554L1980,655L2109,647Z" fill="#9ea2c0" stroke="#9ea2c0" stroke-width="1.51"/><path d="M2065,273L1900,342L2108,358Z" fill="#ac9298" stroke="#ac9298" stroke-width="1.51"/><path d="M1974,257L1900,342L2065,273Z" fill="#ae9396" stroke="#ae9396" stroke-width="1.51"/><path d="M2058,143L1974,257L2065,273Z" fill="#ad828a" stroke="#ad828a" stroke-width="1.51"/><path d="M2056,1028L1946,1119L2080,1102Z" fill="#547ab8" stroke="#547ab8" stroke-width="1.51"/><path d="M1946,1119L1928,1331L2081,1253Z" fill="#4266ad" stroke="#4266ad" stroke-width="1.51"/><path d="M1883,840L1929,936L2082,860Z" fill="#789ecb" stroke="#789ecb" stroke-width="1.51"/><path d="M1983,549L1980,655L2052,554Z" fill="#a3aabe" stroke="#a3aabe" stroke-width="1.51"/><path d="M1895,67L1974,257L2058,143Z" fill="#b07f86" stroke="#b07f86" stroke-width="1.51"/><path d="M1652,1256L1325,1341L1758,1282Z" fill="#6786bf" stroke="#6786bf" stroke-width="1.51"/><path d="M1929,936L1946,1119L2056,1028Z" fill="#5e8ac0" stroke="#5e8ac0" stroke-width="1.51"/><path d="M997,1308L865,1318L1228,1331Z" fill="#9f9cb9" stroke="#9f9cb9" stroke-width="1.51"/><path d="M1483,1262L1325,1341L1652,1256Z" fill="#7290c4" stroke="#7290c4" stroke-width="1.51"/><path d="M1507,-247L1818,-207L1891,-248Z" fill="#a66875" stroke="#a66875" stroke-width="1.51"/><path d="M1756,426L1798,561L1900,342Z" fill="#b6bbb4" stroke="#b6bbb4" stroke-width="1.51"/><path d="M1758,1282L1928,1331L1946,1119Z" fill="#4871b3" stroke="#4871b3" stroke-width="1.51"/><path d="M1929,936L1761,1031L1946,1119Z" fill="#6396c6" stroke="#6396c6" stroke-width="1.51"/><path d="M1891,-248L1818,-207L1956,-87Z" fill="#a15a6e" stroke="#a15a6e" stroke-width="1.51"/><path d="M1816,-22L1895,67L1956,-87Z" fill="#b26e79" stroke="#b26e79" stroke-width="1.51"/><path d="M1895,67L1771,263L1974,257Z" fill="#b6938f" stroke="#b6938f" stroke-width="1.51"/><path d="M1834,640L1883,840L1980,655Z" fill="#98b4d7" stroke="#98b4d7" stroke-width="1.51"/><path d="M1900,342L1798,561L1983,549Z" fill="#afb5b5" stroke="#afb5b5" stroke-width="1.51"/><path d="M1834,640L1980,655L1983,549Z" fill="#a2b3c7" stroke="#a2b3c7" stroke-width="1.51"/><path d="M1798,561L1834,640L1983,549Z" fill="#aabcc5" stroke="#aabcc5" stroke-width="1.51"/><path d="M1773,1113L1758,1282L1946,1119Z" fill="#5484bc" stroke="#5484bc" stroke-width="1.51"/><path d="M1771,263L1900,342L1974,257Z" fill="#b4a19b" stroke="#b4a19b" stroke-width="1.51"/><path d="M1761,1031L1773,1113L1946,1119Z" fill="#5f92c4" stroke="#5f92c4" stroke-width="1.51"/><path d="M1818,-207L1816,-22L1956,-87Z" fill="#ae6572" stroke="#ae6572" stroke-width="1.51"/><path d="M1772,73L1771,263L1895,67Z" fill="#bd908c" stroke="#bd908c" stroke-width="1.51"/><path d="M1834,640L1736,818L1883,840Z" fill="#96b9d9" stroke="#96b9d9" stroke-width="1.51"/><path d="M1883,840L1761,1031L1929,936Z" fill="#75a4ce" stroke="#75a4ce" stroke-width="1.51"/><path d="M1507,-247L1683,-163L1818,-207Z" fill="#b17278" stroke="#b17278" stroke-width="1.51"/><path d="M1736,818L1761,1031L1883,840Z" fill="#81b1d4" stroke="#81b1d4" stroke-width="1.51"/><path d="M1771,263L1756,426L1900,342Z" fill="#b9b1a7" stroke="#b9b1a7" stroke-width="1.51"/><path d="M1816,-22L1772,73L1895,67Z" fill="#ba7d81" stroke="#ba7d81" stroke-width="1.51"/><path d="M721,-265L881,-228L1228,-255Z" fill="#e0926c" stroke="#e0926c" stroke-width="1.51"/><path d="M1683,-163L1816,-22L1818,-207Z" fill="#b46d75" stroke="#b46d75" stroke-width="1.51"/><path d="M1798,561L1650,696L1834,640Z" fill="#aec8d4" stroke="#aec8d4" stroke-width="1.51"/><path d="M1650,696L1736,818L1834,640Z" fill="#a4c7e0" stroke="#a4c7e0" stroke-width="1.51"/><path d="M1652,1256L1758,1282L1773,1113Z" fill="#5888be" stroke="#5888be" stroke-width="1.51"/><path d="M1683,-163L1630,-87L1816,-22Z" fill="#bd7a7b" stroke="#bd7a7b" stroke-width="1.51"/><path d="M1667,48L1772,73L1816,-22Z" fill="#c18685" stroke="#c18685" stroke-width="1.51"/><path d="M1654,291L1756,426L1771,263Z" fill="#c0b9a9" stroke="#c0b9a9" stroke-width="1.51"/><path d="M1667,48L1771,263L1772,73Z" fill="#c3988f" stroke="#c3988f" stroke-width="1.51"/><path d="M1630,-87L1667,48L1816,-22Z" fill="#c28482" stroke="#c28482" stroke-width="1.51"/><path d="M1598,851L1614,1025L1736,818Z" fill="#8fc2dc" stroke="#8fc2dc" stroke-width="1.51"/><path d="M1736,818L1614,1025L1761,1031Z" fill="#7fb4d5" stroke="#7fb4d5" stroke-width="1.51"/><path d="M1667,48L1654,291L1771,263Z" fill="#c6aa99" stroke="#c6aa99" stroke-width="1.51"/><path d="M1756,426L1644,493L1798,561Z" fill="#bccac0" stroke="#bccac0" stroke-width="1.51"/><path d="M1644,493L1650,696L1798,561Z" fill="#b9d2cf" stroke="#b9d2cf" stroke-width="1.51"/><path d="M1654,291L1611,351L1756,426Z" fill="#c4c3b0" stroke="#c4c3b0" stroke-width="1.51"/><path d="M1579,1129L1652,1256L1773,1113Z" fill="#6497c6" stroke="#6497c6" stroke-width="1.51"/><path d="M1761,1031L1614,1025L1773,1113Z" fill="#6ea5cd" stroke="#6ea5cd" stroke-width="1.51"/><path d="M1614,1025L1579,1129L1773,1113Z" fill="#70a5ce" stroke="#70a5ce" stroke-width="1.51"/><path d="M1611,351L1644,493L1756,426Z" fill="#c3cbba" stroke="#c3cbba" stroke-width="1.51"/><path d="M1517,260L1654,291L1667,48Z" fill="#ceb29d" stroke="#ceb29d" stroke-width="1.51"/><path d="M1650,696L1598,851L1736,818Z" fill="#a0cbe2" stroke="#a0cbe2" stroke-width="1.51"/><path d="M1598,851L1531,994L1614,1025Z" fill="#8dc0dc" stroke="#8dc0dc" stroke-width="1.51"/><path d="M1644,493L1470,547L1650,696Z" fill="#c5dcd4" stroke="#c5dcd4" stroke-width="1.51"/><path d="M1470,547L1500,696L1650,696Z" fill="#c2dee2" stroke="#c2dee2" stroke-width="1.51"/><path d="M1508,63L1517,260L1667,48Z" fill="#d4a997" stroke="#d4a997" stroke-width="1.51"/><path d="M1507,-247L1630,-87L1683,-163Z" fill="#be7b7c" stroke="#be7b7c" stroke-width="1.51"/><path d="M1500,696L1598,851L1650,696Z" fill="#b0d5e7" stroke="#b0d5e7" stroke-width="1.51"/><path d="M1630,-87L1508,63L1667,48Z" fill="#ce9289" stroke="#ce9289" stroke-width="1.51"/><path d="M1611,351L1541,335L1644,493Z" fill="#cacfb8" stroke="#cacfb8" stroke-width="1.51"/><path d="M1579,1129L1483,1262L1652,1256Z" fill="#6a97c7" stroke="#6a97c7" stroke-width="1.51"/><path d="M1541,335L1611,351L1654,291Z" fill="#ccc6af" stroke="#ccc6af" stroke-width="1.51"/><path d="M1517,260L1541,335L1654,291Z" fill="#d0c4ac" stroke="#d0c4ac" stroke-width="1.51"/><path d="M1463,-65L1508,63L1630,-87Z" fill="#d29389" stroke="#d29389" stroke-width="1.51"/><path d="M1541,335L1470,547L1644,493Z" fill="#cedac4" stroke="#cedac4" stroke-width="1.51"/><path d="M1507,-247L1463,-65L1630,-87Z" fill="#ca8580" stroke="#ca8580" stroke-width="1.51"/><path d="M1495,1134L1483,1262L1579,1129Z" fill="#75a3cd" stroke="#75a3cd" stroke-width="1.51"/><path d="M1467,862L1531,994L1598,851Z" fill="#9ccce2" stroke="#9ccce2" stroke-width="1.51"/><path d="M1500,696L1467,862L1598,851Z" fill="#add7e8" stroke="#add7e8" stroke-width="1.51"/><path d="M1531,994L1579,1129L1614,1025Z" fill="#7fb4d5" stroke="#7fb4d5" stroke-width="1.51"/><path d="M1531,994L1495,1134L1579,1129Z" fill="#7fb1d4" stroke="#7fb1d4" stroke-width="1.51"/><path d="M1350,367L1470,547L1541,335Z" fill="#d9dfc3" stroke="#d9dfc3" stroke-width="1.51"/><path d="M1228,-255L1362,-189L1507,-247Z" fill="#ca8784" stroke="#ca8784" stroke-width="1.51"/><path d="M1362,-189L1463,-65L1507,-247Z" fill="#ce8983" stroke="#ce8983" stroke-width="1.51"/><path d="M1508,63L1334,142L1517,260Z" fill="#dfb99f" stroke="#dfb99f" stroke-width="1.51"/><path d="M1334,142L1353,234L1517,260Z" fill="#e3c6a7" stroke="#e3c6a7" stroke-width="1.51"/><path d="M1364,964L1495,1134L1531,994Z" fill="#8ec1dd" stroke="#8ec1dd" stroke-width="1.51"/><path d="M1467,862L1364,964L1531,994Z" fill="#9ecee3" stroke="#9ecee3" stroke-width="1.51"/><path d="M1517,260L1350,367L1541,335Z" fill="#dad2b4" stroke="#dad2b4" stroke-width="1.51"/><path d="M1335,795L1467,862L1500,696Z" fill="#bae0ed" stroke="#bae0ed" stroke-width="1.51"/><path d="M1356,1173L1483,1262L1495,1134Z" fill="#7ba7d0" stroke="#7ba7d0" stroke-width="1.51"/><path d="M1470,547L1326,688L1500,696Z" fill="#cee8e6" stroke="#cee8e6" stroke-width="1.51"/><path d="M1353,234L1350,367L1517,260Z" fill="#e1d1b2" stroke="#e1d1b2" stroke-width="1.51"/><path d="M1281,-30L1334,142L1463,-65Z" fill="#e6a694" stroke="#e6a694" stroke-width="1.51"/><path d="M1364,964L1356,1173L1495,1134Z" fill="#8dbbd9" stroke="#8dbbd9" stroke-width="1.51"/><path d="M1326,688L1335,795L1500,696Z" fill="#c8e7f1" stroke="#c8e7f1" stroke-width="1.51"/><path d="M1463,-65L1334,142L1508,63Z" fill="#e0a794" stroke="#e0a794" stroke-width="1.51"/><path d="M1350,367L1282,553L1470,547Z" fill="#e0ebd0" stroke="#e0ebd0" stroke-width="1.51"/><path d="M1356,1173L1325,1341L1483,1262Z" fill="#7f9dcb" stroke="#7f9dcb" stroke-width="1.51"/><path d="M1282,553L1326,688L1470,547Z" fill="#dbeee1" stroke="#dbeee1" stroke-width="1.51"/><path d="M1335,795L1364,964L1467,862Z" fill="#b1dbea" stroke="#b1dbea" stroke-width="1.51"/><path d="M1362,-189L1281,-30L1463,-65Z" fill="#de9588" stroke="#de9588" stroke-width="1.51"/><path d="M1217,409L1223,525L1282,553Z" fill="#edf3d4" stroke="#edf3d4" stroke-width="1.51"/><path d="M1233,1195L1228,1331L1325,1341Z" fill="#8c9ccc" stroke="#8c9ccc" stroke-width="1.51"/><path d="M1281,-30L1236,146L1334,142Z" fill="#efb59d" stroke="#efb59d" stroke-width="1.51"/><path d="M1167,808L1168,949L1335,795Z" fill="#c6e6f1" stroke="#c6e6f1" stroke-width="1.51"/><path d="M1217,409L1282,553L1350,367Z" fill="#eaebcb" stroke="#eaebcb" stroke-width="1.51"/><path d="M1209,237L1350,367L1353,234Z" fill="#ebd5b3" stroke="#ebd5b3" stroke-width="1.51"/><path d="M1233,1195L1325,1341L1356,1173Z" fill="#89a5cf" stroke="#89a5cf" stroke-width="1.51"/><path d="M1228,-255L1281,-30L1362,-189Z" fill="#dd9187" stroke="#dd9187" stroke-width="1.51"/><path d="M1335,795L1168,949L1364,964Z" fill="#b7dceb" stroke="#b7dceb" stroke-width="1.51"/><path d="M1233,1195L1356,1173L1364,964Z" fill="#95bcdb" stroke="#95bcdb" stroke-width="1.51"/><path d="M1168,949L1233,1195L1364,964Z" fill="#a5cde3" stroke="#a5cde3" stroke-width="1.51"/><path d="M1209,237L1217,409L1350,367Z" fill="#eee1bd" stroke="#eee1bd" stroke-width="1.51"/><path d="M1334,142L1236,146L1353,234Z" fill="#edc4a5" stroke="#edc4a5" stroke-width="1.51"/><path d="M1236,146L1209,237L1353,234Z" fill="#f0ccaa" stroke="#f0ccaa" stroke-width="1.51"/><path d="M1211,-15L1236,146L1281,-30Z" fill="#f2ae98" stroke="#f2ae98" stroke-width="1.51"/><path d="M163,-257L531,-223L721,-265Z" fill="#d86942" stroke="#d86942" stroke-width="1.51"/><path d="M1228,-255L1211,-15L1281,-30Z" fill="#e99b8b" stroke="#e99b8b" stroke-width="1.51"/><path d="M1134,720L1167,808L1326,688Z" fill="#daf0f6" stroke="#daf0f6" stroke-width="1.51"/><path d="M1326,688L1167,808L1335,795Z" fill="#cfebf3" stroke="#cfebf3" stroke-width="1.51"/><path d="M1282,553L1134,720L1326,688Z" fill="#e1f2ee" stroke="#e1f2ee" stroke-width="1.51"/><path d="M881,-228L1003,-173L1228,-255Z" fill="#e29477" stroke="#e29477" stroke-width="1.51"/><path d="M1054,-100L1211,-15L1228,-255Z" fill="#ec9a86" stroke="#ec9a86" stroke-width="1.51"/><path d="M1168,949L1082,963L1233,1195Z" fill="#afd0e0" stroke="#afd0e0" stroke-width="1.51"/><path d="M1223,525L1134,720L1282,553Z" fill="#eaf6e6" stroke="#eaf6e6" stroke-width="1.51"/><path d="M994,54L1087,185L1211,-15Z" fill="#fbba92" stroke="#fbba92" stroke-width="1.51"/><path d="M1209,237L1018,409L1217,409Z" fill="#f6e7bb" stroke="#f6e7bb" stroke-width="1.51"/><path d="M1217,409L1059,550L1223,525Z" fill="#f4f5d1" stroke="#f4f5d1" stroke-width="1.51"/><path d="M1059,550L1134,720L1223,525Z" fill="#eff8df" stroke="#eff8df" stroke-width="1.51"/><path d="M1003,-173L1054,-100L1228,-255Z" fill="#e7977e" stroke="#e7977e" stroke-width="1.51"/><path d="M1082,963L980,1155L1233,1195Z" fill="#acc5d3" stroke="#acc5d3" stroke-width="1.51"/><path d="M997,1308L1228,1331L1233,1195Z" fill="#97a2c9" stroke="#97a2c9" stroke-width="1.51"/><path d="M1211,-15L1087,185L1236,146Z" fill="#f7be9f" stroke="#f7be9f" stroke-width="1.51"/><path d="M1087,185L1209,237L1236,146Z" fill="#f8cda7" stroke="#f8cda7" stroke-width="1.51"/><path d="M1087,185L1018,409L1209,237Z" fill="#faddab" stroke="#faddab" stroke-width="1.51"/><path d="M980,1155L997,1308L1233,1195Z" fill="#a1b0c6" stroke="#a1b0c6" stroke-width="1.51"/><path d="M761,1287L407,1329L865,1318Z" fill="#a88c98" stroke="#a88c98" stroke-width="1.51"/><path d="M1018,409L1059,550L1217,409Z" fill="#f8f3c4" stroke="#f8f3c4" stroke-width="1.51"/><path d="M1054,-100L994,54L1211,-15Z" fill="#f7ab87" stroke="#f7ab87" stroke-width="1.51"/><path d="M980,822L1082,963L1167,808Z" fill="#d1e9e3" stroke="#d1e9e3" stroke-width="1.51"/><path d="M1134,720L1014,727L1167,808Z" fill="#e0f2eb" stroke="#e0f2eb" stroke-width="1.51"/><path d="M1167,808L1082,963L1168,949Z" fill="#c5e2e7" stroke="#c5e2e7" stroke-width="1.51"/><path d="M1059,550L1014,727L1134,720Z" fill="#eef7e2" stroke="#eef7e2" stroke-width="1.51"/><path d="M1014,727L980,822L1167,808Z" fill="#def0e4" stroke="#def0e4" stroke-width="1.51"/><path d="M932,1034L980,1155L1082,963Z" fill="#bbd1cc" stroke="#bbd1cc" stroke-width="1.51"/><path d="M920,199L1018,409L1087,185Z" fill="#ffde9d" stroke="#ffde9d" stroke-width="1.51"/><path d="M920,199L876,358L1018,409Z" fill="#ffe69e" stroke="#ffe69e" stroke-width="1.51"/><path d="M937,719L1014,727L1059,550Z" fill="#f2f9db" stroke="#f2f9db" stroke-width="1.51"/><path d="M980,822L895,871L1082,963Z" fill="#d4e9d7" stroke="#d4e9d7" stroke-width="1.51"/><path d="M994,54L920,199L1087,185Z" fill="#ffca8e" stroke="#ffca8e" stroke-width="1.51"/><path d="M895,871L932,1034L1082,963Z" fill="#cbdfcf" stroke="#cbdfcf" stroke-width="1.51"/><path d="M849,-25L994,54L1054,-100Z" fill="#fbae79" stroke="#fbae79" stroke-width="1.51"/><path d="M844,554L937,719L1059,550Z" fill="#fafbca" stroke="#fafbca" stroke-width="1.51"/><path d="M1018,409L844,554L1059,550Z" fill="#fffbbb" stroke="#fffbbb" stroke-width="1.51"/><path d="M1003,-173L849,-25L1054,-100Z" fill="#f6a372" stroke="#f6a372" stroke-width="1.51"/><path d="M852,84L920,199L994,54Z" fill="#ffc282" stroke="#ffc282" stroke-width="1.51"/><path d="M980,1155L893,1177L997,1308Z" fill="#abb4ba" stroke="#abb4ba" stroke-width="1.51"/><path d="M937,719L980,822L1014,727Z" fill="#e8f4db" stroke="#e8f4db" stroke-width="1.51"/><path d="M876,358L844,554L1018,409Z" fill="#fff2ac" stroke="#fff2ac" stroke-width="1.51"/><path d="M881,-228L849,-25L1003,-173Z" fill="#f09b6a" stroke="#f09b6a" stroke-width="1.51"/><path d="M893,1177L865,1318L997,1308Z" fill="#a8a6b2" stroke="#a8a6b2" stroke-width="1.51"/><path d="M849,-25L852,84L994,54Z" fill="#ffb379" stroke="#ffb379" stroke-width="1.51"/><path d="M932,1034L893,1177L980,1155Z" fill="#b5c4c0" stroke="#b5c4c0" stroke-width="1.51"/><path d="M937,719L895,871L980,822Z" fill="#e3efd6" stroke="#e3efd6" stroke-width="1.51"/><path d="M746,198L876,358L920,199Z" fill="#ffd68b" stroke="#ffd68b" stroke-width="1.51"/><path d="M895,871L696,991L932,1034Z" fill="#ccd7c3" stroke="#ccd7c3" stroke-width="1.51"/><path d="M696,991L753,1083L932,1034Z" fill="#c2cab9" stroke="#c2cab9" stroke-width="1.51"/><path d="M753,1083L893,1177L932,1034Z" fill="#b9c3ba" stroke="#b9c3ba" stroke-width="1.51"/><path d="M749,729L895,871L937,719Z" fill="#e8edcf" stroke="#e8edcf" stroke-width="1.51"/><path d="M844,554L749,729L937,719Z" fill="#f5f3ca" stroke="#f5f3ca" stroke-width="1.51"/><path d="M723,488L844,554L876,358Z" fill="#ffeea6" stroke="#ffeea6" stroke-width="1.51"/><path d="M714,-63L849,-25L881,-228Z" fill="#f39962" stroke="#f39962" stroke-width="1.51"/><path d="M852,84L746,198L920,199Z" fill="#ffc57f" stroke="#ffc57f" stroke-width="1.51"/><path d="M592,1249L407,1329L761,1287Z" fill="#ab8891" stroke="#ab8891" stroke-width="1.51"/><path d="M701,442L723,488L876,358Z" fill="#ffe89c" stroke="#ffe89c" stroke-width="1.51"/><path d="M721,-265L714,-63L881,-228Z" fill="#e78d5d" stroke="#e78d5d" stroke-width="1.51"/><path d="M761,1287L865,1318L893,1177Z" fill="#aaa3ab" stroke="#aaa3ab" stroke-width="1.51"/><path d="M749,729L681,831L895,871Z" fill="#e3e4c5" stroke="#e3e4c5" stroke-width="1.51"/><path d="M681,831L696,991L895,871Z" fill="#d6dbbf" stroke="#d6dbbf" stroke-width="1.51"/><path d="M753,1083L761,1287L893,1177Z" fill="#b0b1ae" stroke="#b0b1ae" stroke-width="1.51"/><path d="M849,-25L759,79L852,84Z" fill="#feaf71" stroke="#feaf71" stroke-width="1.51"/><path d="M759,79L746,198L852,84Z" fill="#ffbb76" stroke="#ffbb76" stroke-width="1.51"/><path d="M746,198L701,442L876,358Z" fill="#ffdd8f" stroke="#ffdd8f" stroke-width="1.51"/><path d="M723,488L749,729L844,554Z" fill="#fcf1b6" stroke="#fcf1b6" stroke-width="1.51"/><path d="M714,-63L759,79L849,-25Z" fill="#faa569" stroke="#faa569" stroke-width="1.51"/><path d="M163,-257L456,-203L531,-223Z" fill="#d95e3d" stroke="#d95e3d" stroke-width="1.51"/><path d="M536,289L628,441L701,442Z" fill="#ffd888" stroke="#ffd888" stroke-width="1.51"/><path d="M531,-223L714,-63L721,-265Z" fill="#e58352" stroke="#e58352" stroke-width="1.51"/><path d="M564,566L595,671L723,488Z" fill="#fee4a4" stroke="#fee4a4" stroke-width="1.51"/><path d="M536,289L701,442L746,198Z" fill="#ffd080" stroke="#ffd080" stroke-width="1.51"/><path d="M723,488L595,671L749,729Z" fill="#f9e9b4" stroke="#f9e9b4" stroke-width="1.51"/><path d="M540,96L746,198L759,79Z" fill="#fdb36c" stroke="#fdb36c" stroke-width="1.51"/><path d="M714,-63L540,96L759,79Z" fill="#fba363" stroke="#fba363" stroke-width="1.51"/><path d="M753,1083L616,1109L761,1287Z" fill="#b3aea7" stroke="#b3aea7" stroke-width="1.51"/><path d="M616,1109L592,1249L761,1287Z" fill="#af9f9d" stroke="#af9f9d" stroke-width="1.51"/><path d="M696,991L616,1109L753,1083Z" fill="#c0bead" stroke="#c0bead" stroke-width="1.51"/><path d="M681,831L623,982L696,991Z" fill="#d2ceb4" stroke="#d2ceb4" stroke-width="1.51"/><path d="M595,671L681,831L749,729Z" fill="#eee2be" stroke="#eee2be" stroke-width="1.51"/><path d="M540,96L536,289L746,198Z" fill="#fdb96c" stroke="#fdb96c" stroke-width="1.51"/><path d="M623,982L616,1109L696,991Z" fill="#c6bfab" stroke="#c6bfab" stroke-width="1.51"/><path d="M535,-62L540,96L714,-63Z" fill="#f79357" stroke="#f79357" stroke-width="1.51"/><path d="M531,-223L535,-62L714,-63Z" fill="#ee834e" stroke="#ee834e" stroke-width="1.51"/><path d="M701,442L628,441L723,488Z" fill="#ffe498" stroke="#ffe498" stroke-width="1.51"/><path d="M628,441L564,566L723,488Z" fill="#ffe399" stroke="#ffe399" stroke-width="1.51"/><path d="M532,867L623,982L681,831Z" fill="#dacfb1" stroke="#dacfb1" stroke-width="1.51"/><path d="M595,671L532,867L681,831Z" fill="#e8d7b5" stroke="#e8d7b5" stroke-width="1.51"/><path d="M476,221L536,289L540,96Z" fill="#feb163" stroke="#feb163" stroke-width="1.51"/><path d="M456,738L532,867L595,671Z" fill="#eed1ae" stroke="#eed1ae" stroke-width="1.51"/><path d="M453,1122L592,1249L616,1109Z" fill="#b69e98" stroke="#b69e98" stroke-width="1.51"/><path d="M464,996L616,1109L623,982Z" fill="#c7b7a4" stroke="#c7b7a4" stroke-width="1.51"/><path d="M428,403L564,566L628,441Z" fill="#ffd78c" stroke="#ffd78c" stroke-width="1.51"/><path d="M536,289L428,403L628,441Z" fill="#ffcd7e" stroke="#ffcd7e" stroke-width="1.51"/><path d="M464,996L453,1122L616,1109Z" fill="#c2aa9b" stroke="#c2aa9b" stroke-width="1.51"/><path d="M532,867L464,996L623,982Z" fill="#d3c0a7" stroke="#d3c0a7" stroke-width="1.51"/><path d="M531,-223L456,-203L535,-62Z" fill="#e67545" stroke="#e67545" stroke-width="1.51"/><path d="M428,403L439,582L564,566Z" fill="#ffd48c" stroke="#ffd48c" stroke-width="1.51"/><path d="M564,566L439,582L595,671Z" fill="#fdd9a0" stroke="#fdd9a0" stroke-width="1.51"/><path d="M439,582L456,738L595,671Z" fill="#f9d4a7" stroke="#f9d4a7" stroke-width="1.51"/><path d="M535,-62L431,-13L540,96Z" fill="#f78c50" stroke="#f78c50" stroke-width="1.51"/><path d="M453,1122L407,1329L592,1249Z" fill="#b08a8c" stroke="#b08a8c" stroke-width="1.51"/><path d="M163,-257L291,-169L456,-203Z" fill="#da5338" stroke="#da5338" stroke-width="1.51"/><path d="M456,738L406,809L532,867Z" fill="#e9c7a7" stroke="#e9c7a7" stroke-width="1.51"/><path d="M456,-203L431,-13L535,-62Z" fill="#ee7944" stroke="#ee7944" stroke-width="1.51"/><path d="M401,96L476,221L540,96Z" fill="#fca05a" stroke="#fca05a" stroke-width="1.51"/><path d="M431,-13L401,96L540,96Z" fill="#f98e52" stroke="#f98e52" stroke-width="1.51"/><path d="M406,809L464,996L532,867Z" fill="#dcbfa3" stroke="#dcbfa3" stroke-width="1.51"/><path d="M476,221L428,403L536,289Z" fill="#febd6e" stroke="#febd6e" stroke-width="1.51"/><path d="M257,1107L262,1319L407,1329Z" fill="#af707e" stroke="#af707e" stroke-width="1.51"/><path d="M293,250L329,403L428,403Z" fill="#fdb36c" stroke="#fdb36c" stroke-width="1.51"/><path d="M428,403L334,542L439,582Z" fill="#ffc986" stroke="#ffc986" stroke-width="1.51"/><path d="M257,1107L407,1329L453,1122Z" fill="#b58687" stroke="#b58687" stroke-width="1.51"/><path d="M439,582L328,711L456,738Z" fill="#f8c8a2" stroke="#f8c8a2" stroke-width="1.51"/><path d="M291,-169L431,-13L456,-203Z" fill="#e9683e" stroke="#e9683e" stroke-width="1.51"/><path d="M406,809L251,972L464,996Z" fill="#d8af9a" stroke="#d8af9a" stroke-width="1.51"/><path d="M257,1107L453,1122L464,996Z" fill="#c29c92" stroke="#c29c92" stroke-width="1.51"/><path d="M401,96L324,128L476,221Z" fill="#fb9856" stroke="#fb9856" stroke-width="1.51"/><path d="M324,128L293,250L476,221Z" fill="#fc9d58" stroke="#fc9d58" stroke-width="1.51"/><path d="M293,250L428,403L476,221Z" fill="#fdb067" stroke="#fdb067" stroke-width="1.51"/><path d="M251,972L257,1107L464,996Z" fill="#ca9c90" stroke="#ca9c90" stroke-width="1.51"/><path d="M329,403L334,542L428,403Z" fill="#ffc07b" stroke="#ffc07b" stroke-width="1.51"/><path d="M291,-169L248,-71L431,-13Z" fill="#eb653d" stroke="#eb653d" stroke-width="1.51"/><path d="M328,711L406,809L456,738Z" fill="#f0c2a4" stroke="#f0c2a4" stroke-width="1.51"/><path d="M334,542L328,711L439,582Z" fill="#fdc694" stroke="#fdc694" stroke-width="1.51"/><path d="M229,832L251,972L406,809Z" fill="#e0ad98" stroke="#e0ad98" stroke-width="1.51"/><path d="M324,128L401,96L431,-13Z" fill="#f8874e" stroke="#f8874e" stroke-width="1.51"/><path d="M248,-71L324,128L431,-13Z" fill="#f47646" stroke="#f47646" stroke-width="1.51"/><path d="M328,711L229,832L406,809Z" fill="#ecb79e" stroke="#ecb79e" stroke-width="1.51"/><path d="M248,-71L163,-41L324,128Z" fill="#f16740" stroke="#f16740" stroke-width="1.51"/><path d="M163,-41L109,110L324,128Z" fill="#f26d42" stroke="#f26d42" stroke-width="1.51"/><path d="M123,595L140,719L328,711Z" fill="#f7af93" stroke="#f7af93" stroke-width="1.51"/><path d="M293,250L187,262L329,403Z" fill="#fca261" stroke="#fca261" stroke-width="1.51"/><path d="M79,406L123,595L329,403Z" fill="#fcab70" stroke="#fcab70" stroke-width="1.51"/><path d="M329,403L123,595L334,542Z" fill="#ffb87d" stroke="#ffb87d" stroke-width="1.51"/><path d="M123,595L328,711L334,542Z" fill="#fcb88e" stroke="#fcb88e" stroke-width="1.51"/><path d="M257,1107L124,1149L262,1319Z" fill="#b3727c" stroke="#b3727c" stroke-width="1.51"/><path d="M187,262L293,250L324,128Z" fill="#fa9354" stroke="#fa9354" stroke-width="1.51"/><path d="M140,719L229,832L328,711Z" fill="#f0ad99" stroke="#f0ad99" stroke-width="1.51"/><path d="M187,262L79,406L329,403Z" fill="#faa263" stroke="#faa263" stroke-width="1.51"/><path d="M124,1149L162,1317L262,1319Z" fill="#ab6074" stroke="#ab6074" stroke-width="1.51"/><path d="M109,110L187,262L324,128Z" fill="#f6834c" stroke="#f6834c" stroke-width="1.51"/><path d="M163,-257L248,-71L291,-169Z" fill="#de4c34" stroke="#de4c34" stroke-width="1.51"/><path d="M163,-257L163,-41L248,-71Z" fill="#e24b32" stroke="#e24b32" stroke-width="1.51"/><path d="M229,832L156,854L251,972Z" fill="#dda292" stroke="#dda292" stroke-width="1.51"/><path d="M156,854L157,965L251,972Z" fill="#d5998d" stroke="#d5998d" stroke-width="1.51"/><path d="M251,972L157,965L257,1107Z" fill="#ca918a" stroke="#ca918a" stroke-width="1.51"/><path d="M157,965L124,1149L257,1107Z" fill="#c18483" stroke="#c18483" stroke-width="1.51"/><path d="M21,-164L163,-41L163,-257Z" fill="#d93e2d" stroke="#d93e2d" stroke-width="1.51"/><path d="M140,719L156,854L229,832Z" fill="#e6a592" stroke="#e6a592" stroke-width="1.51"/><path d="M34,1094L124,1149L157,965Z" fill="#be7d7e" stroke="#be7d7e" stroke-width="1.51"/><path d="M18,-23L109,110L163,-41Z" fill="#e95738" stroke="#e95738" stroke-width="1.51"/><path d="M-142,-175L21,-164L163,-257Z" fill="#cc2a28" stroke="#cc2a28" stroke-width="1.51"/><path d="M109,110L39,211L187,262Z" fill="#f27e48" stroke="#f27e48" stroke-width="1.51"/><path d="M39,211L79,406L187,262Z" fill="#f48e54" stroke="#f48e54" stroke-width="1.51"/><path d="M79,406L-14,507L123,595Z" fill="#f7a36e" stroke="#f7a36e" stroke-width="1.51"/><path d="M140,719L35,884L156,854Z" fill="#e29d8e" stroke="#e29d8e" stroke-width="1.51"/><path d="M156,854L35,884L157,965Z" fill="#d69689" stroke="#d69689" stroke-width="1.51"/><path d="M-3,1013L34,1094L157,965Z" fill="#c2817f" stroke="#c2817f" stroke-width="1.51"/><path d="M124,1149L-65,1303L162,1317Z" fill="#a6566d" stroke="#a6566d" stroke-width="1.51"/><path d="M21,-164L18,-23L163,-41Z" fill="#df442f" stroke="#df442f" stroke-width="1.51"/><path d="M-38,727L35,884L140,719Z" fill="#e49a8a" stroke="#e49a8a" stroke-width="1.51"/><path d="M35,884L-3,1013L157,965Z" fill="#cc8a83" stroke="#cc8a83" stroke-width="1.51"/><path d="M34,1094L-65,1303L124,1149Z" fill="#ac6270" stroke="#ac6270" stroke-width="1.51"/><path d="M123,595L-38,727L140,719Z" fill="#f0a28b" stroke="#f0a28b" stroke-width="1.51"/><path d="M39,211L-35,395L79,406Z" fill="#f08d55" stroke="#f08d55" stroke-width="1.51"/><path d="M-14,507L-38,727L123,595Z" fill="#f2a07c" stroke="#f2a07c" stroke-width="1.51"/><path d="M-69,41L39,211L109,110Z" fill="#ea663c" stroke="#ea663c" stroke-width="1.51"/><path d="M18,-23L-69,41L109,110Z" fill="#e75336" stroke="#e75336" stroke-width="1.51"/><path d="M-35,395L-14,507L79,406Z" fill="#f29761" stroke="#f29761" stroke-width="1.51"/><path d="M-155,686L-38,727L-14,507Z" fill="#e7987f" stroke="#e7987f" stroke-width="1.51"/><path d="M-166,-70L18,-23L21,-164Z" fill="#d5352a" stroke="#d5352a" stroke-width="1.51"/><path d="M-142,-175L-166,-70L21,-164Z" fill="#ca2727" stroke="#ca2727" stroke-width="1.51"/><path d="M-217,1104L-65,1303L34,1094Z" fill="#a45d6f" stroke="#a45d6f" stroke-width="1.51"/><path d="M-38,727L-170,785L35,884Z" fill="#d88f86" stroke="#d88f86" stroke-width="1.51"/><path d="M-117,1003L-3,1013L35,884Z" fill="#c4807d" stroke="#c4807d" stroke-width="1.51"/><path d="M-69,41L-192,186L39,211Z" fill="#e2633d" stroke="#e2633d" stroke-width="1.51"/><path d="M-142,378L-35,395L39,211Z" fill="#ea8652" stroke="#ea8652" stroke-width="1.51"/><path d="M-192,186L-142,378L39,211Z" fill="#e37749" stroke="#e37749" stroke-width="1.51"/><path d="M-117,1003L-217,1104L34,1094Z" fill="#af6d76" stroke="#af6d76" stroke-width="1.51"/><path d="M-170,785L-117,1003L35,884Z" fill="#c98682" stroke="#c98682" stroke-width="1.51"/><path d="M-3,1013L-117,1003L34,1094Z" fill="#bb7779" stroke="#bb7779" stroke-width="1.51"/><path d="M-166,-70L-69,41L18,-23Z" fill="#d9412f" stroke="#d9412f" stroke-width="1.51"/><path d="M-155,490L-155,686L-14,507Z" fill="#e79871" stroke="#e79871" stroke-width="1.51"/><path d="M-217,1104L-217,1261L-65,1303Z" fill="#944c69" stroke="#944c69" stroke-width="1.51"/><path d="M-35,395L-155,490L-14,507Z" fill="#eb9464" stroke="#eb9464" stroke-width="1.51"/><path d="M-159,49L-192,186L-69,41Z" fill="#d95438" stroke="#d95438" stroke-width="1.51"/><path d="M-142,378L-155,490L-35,395Z" fill="#e68d5e" stroke="#e68d5e" stroke-width="1.51"/><path d="M-155,686L-170,785L-38,727Z" fill="#da9088" stroke="#da9088" stroke-width="1.51"/><path d="M-166,-70L-159,49L-69,41Z" fill="#d44131" stroke="#d44131" stroke-width="1.51"/><path d="M-170,785L-217,1104L-117,1003Z" fill="#b5787c" stroke="#b5787c" stroke-width="1.51"/><path d="M-192,186L-155,490L-142,378Z" fill="#de8255" stroke="#de8255" stroke-width="1.51"/><path d="M-192,186L-170,785L-155,490Z" fill="#e08f67" stroke="#e08f67" stroke-width="1.51"/><path d="M-155,490L-170,785L-155,686Z" fill="#dc9181" stroke="#dc9181" stroke-width="1.51"/><path d="M-166,-70L-192,186L-159,49Z" fill="#d44836" stroke="#d44836" stroke-width="1.51"/><path d="M-192,186L-217,1104L-170,785Z" fill="#d78d85" stroke="#d78d85" stroke-width="1.51"/></svg>